<svg xmlns="http://www.w3.org/2000/svg" xmlns:xlink="http://www.w3.org/1999/xlink" width="36" zoomAndPan="magnify" viewBox="0 0 36 36.000001" height="36" preserveAspectRatio="xMidYMid meet" version="1.0"><path fill="#ff66c4" d="M 22.863281 1.511719 C 23.363281 1.511719 23.769531 1.917969 23.769531 2.417969 L 23.769531 5.746094 L 27.097656 5.746094 C 27.597656 5.746094 28.003906 6.152344 28.003906 6.652344 C 28.003906 7.152344 27.597656 7.558594 27.097656 7.558594 L 23.769531 7.558594 L 23.769531 10.886719 C 23.769531 11.386719 23.363281 11.792969 22.863281 11.792969 C 22.363281 11.792969 21.957031 11.386719 21.957031 10.886719 L 21.957031 7.558594 L 18.628906 7.558594 C 18.128906 7.558594 17.722656 7.152344 17.722656 6.652344 C 17.722656 6.152344 18.128906 5.746094 18.628906 5.746094 L 21.957031 5.746094 L 21.957031 2.417969 C 21.957031 1.917969 22.363281 1.511719 22.863281 1.511719 Z M 22.863281 1.511719 " fill-opacity="1" fill-rule="evenodd"/><path fill="#ff66c4" d="M 15 1.511719 L 14.929688 1.511719 C 12.136719 1.511719 9.949219 1.511719 8.242188 1.742188 C 6.496094 1.976562 5.117188 2.46875 4.035156 3.550781 C 2.949219 4.632812 2.460938 6.011719 2.226562 7.757812 C 1.996094 9.464844 1.996094 11.652344 1.996094 14.445312 L 1.996094 14.585938 C 1.996094 17.378906 1.996094 19.566406 2.226562 21.273438 C 2.460938 23.019531 2.949219 24.402344 4.035156 25.484375 C 5.117188 26.566406 6.496094 27.054688 8.242188 27.289062 C 9.949219 27.519531 12.136719 27.519531 14.929688 27.519531 L 15.070312 27.519531 C 17.863281 27.519531 20.050781 27.519531 21.757812 27.289062 C 23.503906 27.054688 24.882812 26.566406 25.964844 25.484375 C 27.050781 24.402344 27.539062 23.019531 27.773438 21.273438 C 28.003906 19.566406 28.003906 17.378906 28.003906 14.585938 L 28.003906 14.515625 C 28.003906 14.015625 27.597656 13.609375 27.097656 13.609375 C 26.597656 13.609375 26.191406 14.015625 26.191406 14.515625 C 26.191406 17.394531 26.1875 19.460938 25.976562 21.03125 C 25.96875 21.09375 25.960938 21.15625 25.949219 21.214844 L 22.59375 18.195312 C 21.023438 16.78125 18.683594 16.640625 16.953125 17.855469 L 16.589844 18.109375 C 15.988281 18.53125 15.171875 18.460938 14.652344 17.941406 L 9.464844 12.75 C 8.089844 11.378906 5.886719 11.304688 4.425781 12.585938 L 3.8125 13.121094 C 3.816406 10.953125 3.847656 9.304688 4.023438 8 C 4.230469 6.453125 4.628906 5.523438 5.316406 4.832031 C 6.003906 4.144531 6.9375 3.746094 8.484375 3.539062 C 10.058594 3.328125 12.125 3.328125 15 3.328125 C 15.5 3.328125 15.90625 2.921875 15.90625 2.417969 C 15.90625 1.917969 15.5 1.511719 15 1.511719 Z M 4.023438 21.03125 C 4.230469 22.578125 4.628906 23.511719 5.316406 24.199219 C 6.003906 24.890625 6.9375 25.285156 8.484375 25.492188 C 10.058594 25.703125 12.125 25.707031 15 25.707031 C 17.875 25.707031 19.941406 25.703125 21.515625 25.492188 C 23.0625 25.285156 23.996094 24.890625 24.683594 24.199219 C 24.976562 23.90625 25.21875 23.566406 25.414062 23.152344 C 25.367188 23.125 25.324219 23.089844 25.28125 23.054688 L 21.378906 19.542969 C 20.4375 18.695312 19.03125 18.609375 17.996094 19.339844 L 17.632812 19.59375 C 16.3125 20.523438 14.511719 20.367188 13.371094 19.222656 L 8.179688 14.035156 C 7.480469 13.335938 6.363281 13.300781 5.621094 13.949219 L 3.8125 15.53125 C 3.8125 17.890625 3.839844 19.652344 4.023438 21.03125 Z M 4.023438 21.03125 " fill-opacity="1" fill-rule="evenodd"/></svg>