<svg xmlns="http://www.w3.org/2000/svg" xmlns:xlink="http://www.w3.org/1999/xlink" width="20" zoomAndPan="magnify" viewBox="0 0 20 20.000001" height="20" preserveAspectRatio="xMidYMid meet" version="1.0"><path fill="#ff66c4" d="M 10.625 7.429688 C 10.617188 7.4375 10.613281 7.441406 10.605469 7.449219 L 8.664062 9.171875 C 8.300781 9.496094 8 9.761719 7.792969 10.003906 C 7.578125 10.261719 7.421875 10.535156 7.421875 10.875 C 7.421875 11.214844 7.578125 11.488281 7.792969 11.742188 C 8 11.984375 8.300781 12.25 8.664062 12.574219 L 10.605469 14.300781 C 10.613281 14.304688 10.617188 14.3125 10.625 14.316406 C 10.78125 14.457031 10.925781 14.585938 11.054688 14.671875 C 11.179688 14.753906 11.402344 14.871094 11.65625 14.757812 C 11.910156 14.644531 11.972656 14.394531 11.992188 14.25 C 12.015625 14.097656 12.015625 13.902344 12.015625 13.691406 C 12.015625 13.683594 12.015625 13.675781 12.015625 13.667969 L 12.015625 12.90625 C 12.71875 12.957031 13.429688 13.144531 14.050781 13.445312 C 14.78125 13.804688 15.367188 14.308594 15.683594 14.914062 C 15.761719 15.0625 15.929688 15.136719 16.09375 15.097656 C 16.253906 15.058594 16.371094 14.910156 16.371094 14.746094 C 16.371094 12.460938 15.699219 10.972656 14.746094 10.058594 C 13.914062 9.261719 12.898438 8.933594 12.015625 8.867188 L 12.015625 8.082031 C 12.015625 8.070312 12.015625 8.0625 12.015625 8.054688 C 12.015625 7.84375 12.015625 7.648438 11.992188 7.5 C 11.972656 7.351562 11.910156 7.101562 11.65625 6.988281 C 11.402344 6.875 11.179688 6.996094 11.054688 7.078125 C 10.925781 7.160156 10.78125 7.292969 10.625 7.429688 Z M 11.289062 7.8125 C 11.234375 7.859375 11.167969 7.917969 11.085938 7.988281 L 9.164062 9.699219 C 8.777344 10.042969 8.515625 10.277344 8.347656 10.476562 C 8.183594 10.667969 8.148438 10.777344 8.148438 10.875 C 8.148438 10.96875 8.183594 11.082031 8.347656 11.273438 C 8.515625 11.472656 8.777344 11.703125 9.164062 12.050781 L 11.085938 13.757812 C 11.167969 13.828125 11.234375 13.886719 11.289062 13.933594 C 11.289062 13.859375 11.289062 13.773438 11.289062 13.667969 L 11.289062 12.53125 C 11.289062 12.332031 11.449219 12.167969 11.652344 12.167969 C 12.578125 12.167969 13.539062 12.390625 14.367188 12.792969 C 14.8125 13.011719 15.226562 13.285156 15.578125 13.609375 C 15.398438 12.136719 14.871094 11.183594 14.242188 10.582031 C 13.460938 9.832031 12.46875 9.578125 11.652344 9.578125 C 11.449219 9.578125 11.289062 9.414062 11.289062 9.214844 L 11.289062 8.082031 C 11.289062 7.972656 11.289062 7.886719 11.289062 7.8125 Z M 11.289062 7.8125 " fill-opacity="1" fill-rule="evenodd"/></svg>
