<svg xmlns="http://www.w3.org/2000/svg" xmlns:xlink="http://www.w3.org/1999/xlink" width="24" zoomAndPan="magnify" viewBox="0 0 24 24.000001" height="24" preserveAspectRatio="xMidYMid meet" version="1.0"><path fill="#ff66c4" d="M 14 8.207031 C 13.796875 8.207031 13.636719 8.371094 13.636719 8.570312 C 13.636719 8.769531 13.796875 8.933594 14 8.933594 L 16.902344 8.933594 C 17.101562 8.933594 17.265625 8.769531 17.265625 8.570312 C 17.265625 8.371094 17.101562 8.207031 16.902344 8.207031 Z M 14 8.207031 " fill-opacity="1" fill-rule="nonzero"/><path fill="#ff66c4" d="M 15.421875 6.273438 C 14.417969 6.273438 13.628906 6.273438 13.011719 6.355469 C 12.378906 6.441406 11.871094 6.621094 11.476562 7.023438 C 11.078125 7.425781 10.898438 7.933594 10.816406 8.574219 C 10.734375 9.195312 10.734375 9.996094 10.734375 11.007812 L 10.734375 13.476562 C 10.734375 14.207031 10.734375 14.78125 10.777344 15.21875 C 10.824219 15.648438 10.921875 16.035156 11.203125 16.292969 C 11.429688 16.503906 11.714844 16.632812 12.019531 16.667969 C 12.402344 16.710938 12.757812 16.53125 13.109375 16.28125 C 13.460938 16.03125 13.890625 15.648438 14.433594 15.167969 L 14.453125 15.152344 C 14.703125 14.933594 14.875 14.78125 15.015625 14.675781 C 15.15625 14.578125 15.238281 14.539062 15.308594 14.527344 C 15.402344 14.507812 15.5 14.507812 15.589844 14.527344 C 15.660156 14.539062 15.746094 14.578125 15.882812 14.675781 C 16.027344 14.78125 16.195312 14.933594 16.449219 15.152344 L 16.464844 15.171875 C 17.007812 15.648438 17.4375 16.03125 17.792969 16.28125 C 18.144531 16.53125 18.5 16.710938 18.878906 16.667969 C 19.183594 16.632812 19.46875 16.503906 19.695312 16.292969 C 19.976562 16.035156 20.074219 15.648438 20.121094 15.21875 C 20.167969 14.78125 20.167969 14.207031 20.167969 13.476562 L 20.167969 11.007812 C 20.167969 9.996094 20.167969 9.195312 20.085938 8.574219 C 20 7.933594 19.820312 7.425781 19.425781 7.023438 C 19.027344 6.621094 18.523438 6.441406 17.886719 6.355469 C 17.269531 6.273438 16.480469 6.273438 15.476562 6.273438 Z M 11.992188 7.535156 C 12.230469 7.292969 12.558594 7.148438 13.109375 7.074219 C 13.671875 7 14.414062 6.996094 15.449219 6.996094 C 16.488281 6.996094 17.226562 7 17.789062 7.074219 C 18.34375 7.148438 18.667969 7.292969 18.910156 7.535156 C 19.148438 7.777344 19.292969 8.109375 19.367188 8.667969 C 19.441406 9.238281 19.441406 9.988281 19.441406 11.035156 L 19.441406 13.453125 C 19.441406 14.210938 19.441406 14.75 19.398438 15.140625 C 19.355469 15.542969 19.277344 15.691406 19.203125 15.761719 C 19.089844 15.863281 18.949219 15.929688 18.796875 15.945312 C 18.699219 15.957031 18.539062 15.921875 18.210938 15.691406 C 17.894531 15.464844 17.492188 15.109375 16.929688 14.609375 L 16.914062 14.597656 C 16.679688 14.390625 16.484375 14.21875 16.3125 14.089844 C 16.132812 13.960938 15.949219 13.859375 15.734375 13.816406 C 15.546875 13.777344 15.355469 13.777344 15.164062 13.816406 C 14.953125 13.859375 14.769531 13.960938 14.589844 14.089844 C 14.417969 14.21875 14.21875 14.390625 13.984375 14.597656 L 13.972656 14.609375 C 13.40625 15.109375 13.007812 15.464844 12.6875 15.691406 C 12.363281 15.921875 12.199219 15.957031 12.101562 15.945312 C 11.953125 15.929688 11.808594 15.863281 11.695312 15.761719 C 11.621094 15.691406 11.542969 15.542969 11.5 15.140625 C 11.457031 14.75 11.457031 14.210938 11.457031 13.453125 L 11.457031 11.035156 C 11.457031 9.988281 11.460938 9.238281 11.535156 8.667969 C 11.609375 8.109375 11.75 7.777344 11.992188 7.535156 Z M 11.992188 7.535156 " fill-opacity="1" fill-rule="evenodd"/></svg>
