<svg xmlns="http://www.w3.org/2000/svg" xmlns:xlink="http://www.w3.org/1999/xlink" width="40" zoomAndPan="magnify" viewBox="0 0 30 30.000001" height="40" preserveAspectRatio="xMidYMid meet" version="1.0"><path fill="#0097b2" d="M 12.585938 8.175781 C 12.785156 8.164062 12.957031 8.3125 12.972656 8.511719 L 13.195312 11.851562 C 13.238281 12.503906 13.269531 12.957031 13.335938 13.300781 C 13.402344 13.628906 13.496094 13.804688 13.628906 13.929688 C 13.757812 14.054688 13.941406 14.132812 14.273438 14.175781 C 14.621094 14.222656 15.074219 14.222656 15.730469 14.222656 L 16.101562 14.222656 C 16.757812 14.222656 17.210938 14.222656 17.558594 14.175781 C 17.890625 14.132812 18.074219 14.054688 18.203125 13.929688 C 18.335938 13.804688 18.429688 13.628906 18.496094 13.300781 C 18.5625 12.957031 18.59375 12.503906 18.636719 11.851562 L 18.859375 8.511719 C 18.875 8.3125 19.046875 8.164062 19.246094 8.175781 C 19.445312 8.1875 19.597656 8.363281 19.585938 8.5625 L 19.359375 11.925781 C 19.320312 12.546875 19.285156 13.046875 19.207031 13.441406 C 19.125 13.851562 18.988281 14.191406 18.699219 14.460938 C 18.414062 14.726562 18.0625 14.84375 17.652344 14.898438 C 17.253906 14.949219 16.75 14.949219 16.128906 14.949219 L 15.703125 14.949219 C 15.082031 14.949219 14.578125 14.949219 14.179688 14.898438 C 13.765625 14.84375 13.417969 14.726562 13.132812 14.460938 C 12.84375 14.191406 12.707031 13.851562 12.625 13.441406 C 12.546875 13.046875 12.511719 12.546875 12.472656 11.925781 L 12.246094 8.5625 C 12.234375 8.363281 12.386719 8.1875 12.585938 8.175781 Z M 12.585938 8.175781 " fill-opacity="1" fill-rule="evenodd"/><path fill="#0097b2" d="M 15.121094 5.511719 L 15.097656 5.511719 C 14.992188 5.511719 14.902344 5.511719 14.816406 5.527344 C 14.476562 5.582031 14.179688 5.792969 14.023438 6.097656 C 13.980469 6.175781 13.953125 6.261719 13.917969 6.363281 L 13.914062 6.382812 L 13.867188 6.523438 C 13.855469 6.550781 13.855469 6.558594 13.851562 6.566406 C 13.765625 6.800781 13.546875 6.957031 13.296875 6.964844 C 13.292969 6.964844 13.285156 6.964844 13.253906 6.964844 L 11.804688 6.964844 C 11.601562 6.964844 11.441406 7.128906 11.441406 7.328125 C 11.441406 7.527344 11.601562 7.691406 11.804688 7.691406 L 20.027344 7.691406 C 20.230469 7.691406 20.390625 7.527344 20.390625 7.328125 C 20.390625 7.128906 20.230469 6.964844 20.027344 6.964844 L 18.578125 6.964844 C 18.546875 6.964844 18.539062 6.964844 18.535156 6.964844 C 18.285156 6.957031 18.066406 6.800781 17.980469 6.566406 C 17.976562 6.558594 17.976562 6.550781 17.964844 6.523438 L 17.917969 6.382812 L 17.914062 6.363281 C 17.878906 6.261719 17.851562 6.175781 17.808594 6.097656 C 17.652344 5.792969 17.355469 5.582031 17.015625 5.527344 C 16.929688 5.511719 16.839844 5.511719 16.734375 5.511719 Z M 14.535156 6.8125 C 14.515625 6.867188 14.492188 6.917969 14.46875 6.964844 L 17.363281 6.964844 C 17.339844 6.917969 17.316406 6.867188 17.296875 6.8125 L 17.277344 6.757812 L 17.230469 6.613281 C 17.1875 6.480469 17.175781 6.453125 17.167969 6.433594 C 17.113281 6.332031 17.015625 6.261719 16.902344 6.242188 C 16.878906 6.242188 16.851562 6.238281 16.710938 6.238281 L 15.121094 6.238281 C 14.980469 6.238281 14.953125 6.242188 14.929688 6.242188 C 14.816406 6.261719 14.71875 6.332031 14.664062 6.433594 C 14.65625 6.453125 14.644531 6.480469 14.601562 6.613281 L 14.554688 6.757812 C 14.546875 6.78125 14.539062 6.796875 14.535156 6.8125 Z M 14.535156 6.8125 " fill-opacity="1" fill-rule="evenodd"/></svg>